<?xml version="1.0" standalone="no"?>
<!DOCTYPE svg PUBLIC "-//W3C//DTD SVG 20010904//EN"
 "http://www.w3.org/TR/2001/REC-SVG-20010904/DTD/svg10.dtd">
<svg version="1.0" xmlns="http://www.w3.org/2000/svg"
 width="80.000000pt" height="80.000000pt" viewBox="0 0 80.000000 80.000000"
 preserveAspectRatio="xMidYMid meet">
<metadata>
Created by potrace 1.13, written by Peter Selinger 2001-2015
</metadata>
<g transform="translate(0.000000,80.000000) scale(0.080000,-0.080000)"
fill="#000000" stroke="none">
<path d="M21 960 c-21 -38 -21 -44 -17 -387 6 -403 14 -573 26 -573 5 0 11 42
13 92 l3 93 2 -92 c2 -85 4 -93 22 -93 17 0 20 8 23 82 l3 83 2 -82 2 -83 145
0 c134 0 145 1 155 20 9 17 21 20 70 20 49 0 61 -3 70 -20 10 -19 21 -20 213
-20 l202 0 22 33 c23 33 23 35 23 419 0 213 -3 393 -6 402 -5 14 -37 16 -249
16 -252 0 -255 0 -255 41 0 5 107 10 243 12 l242 2 -250 5 -250 4 245 6 245 6
-246 2 -247 2 -6 25 -7 26 -208 -1 -208 -1 -22 -39z m402 -6 c3 -4 -1 -14 -10
-23 -15 -15 -15 -16 3 -20 20 -4 34 -19 34 -38 0 -9 -15 -13 -44 -13 -25 0
-48 -4 -51 -10 -4 -6 15 -10 49 -10 31 0 56 -2 56 -4 0 -2 3 -11 6 -20 5 -13
-7 -16 -73 -19 l-78 -3 83 -2 c45 -1 82 -6 82 -12 0 -5 -42 -11 -92 -13 l-93
-3 96 -2 c97 -2 109 -7 109 -42 0 -5 -51 -11 -112 -13 l-113 -3 116 -2 c113
-2 116 -3 127 -27 16 -35 16 -35 -13 -35 -14 0 -25 5 -25 10 0 6 -63 10 -170
10 l-170 0 0 -160 c0 -144 2 -160 17 -160 12 0 6 -11 -22 -40 -29 -30 -47 -40
-65 -38 l-25 3 0 315 0 315 28 3 c23 3 27 8 27 33 l0 29 158 0 c87 0 161 -3
165 -6z m211 -280 c11 -28 7 -34 -23 -34 -26 0 -41 14 -41 41 0 16 57 10 64
-7z m-94 -63 c0 -5 3 -16 6 -25 5 -13 -1 -16 -30 -16 -32 0 -36 3 -36 25 0 21
5 25 30 25 17 0 30 -4 30 -9z m30 -90 c15 -30 14 -31 -40 -31 -47 0 -50 2 -50
25 0 22 4 25 40 25 29 0 42 -5 50 -19z m28 -88 c3 -22 0 -23 -57 -23 -59 0
-61 1 -61 25 0 25 2 26 58 23 50 -3 57 -6 60 -25z m22 -57 c0 -2 3 -11 6 -20
5 -14 -3 -16 -54 -16 -69 0 -92 6 -92 26 0 11 17 14 70 14 39 0 70 -2 70 -4z
m22 -72 c3 -3 4 -14 1 -25 -7 -26 -35 -24 -63 6 l-23 25 40 0 c22 0 42 -3 45
-6z m-13 -171 c-37 -50 -53 -63 -60 -51 -5 7 4 23 22 40 33 32 60 39 38 11z
m-121 -30 c2 -9 -7 -13 -27 -13 -30 0 -39 9 -24 24 11 10 46 3 51 -11z m12
-38 c0 -11 -12 -15 -50 -15 -40 0 -48 3 -44 15 4 10 20 15 50 15 32 0 44 -4
44 -15z"/>
</g>
</svg>
